<?xml version="1.0" standalone="no"?>
<!DOCTYPE svg PUBLIC "-//W3C//DTD SVG 20010904//EN"
 "http://www.w3.org/TR/2001/REC-SVG-20010904/DTD/svg10.dtd">
<svg version="1.0" xmlns="http://www.w3.org/2000/svg"
 width="1024.000000pt" height="1024.000000pt" viewBox="0 0 1024.000000 1024.000000"
 preserveAspectRatio="xMidYMid meet">

<g transform="translate(0.000000,1024.000000) scale(0.100000,-0.100000)"
fill="#000000" stroke="none">
<path d="M0 5120 l0 -5120 5120 0 5120 0 0 5120 0 5120 -5120 0 -5120 0 0
-5120z m5984 2762 c60 -35 62 -48 56 -384 l-5 -303 -5 305 c-4 218 -9 311 -18
327 -30 53 -31 53 -387 52 -181 0 -321 -4 -310 -8 38 -15 -120 -21 -572 -21
l-452 0 -28 -24 -28 -24 -6 -209 c-4 -114 -8 -248 -8 -296 -1 -56 -5 -86 -11
-82 -6 4 -10 118 -10 309 0 286 1 305 20 328 10 14 34 33 52 42 31 16 92 17
857 12 769 -6 826 -7 855 -24z m-314 -282 c39 -39 15 -110 -38 -110 -55 0 -81
62 -44 108 21 27 56 28 82 2z m-2197 -217 c53 -3 95 -9 92 -12 -4 -3 -45 -8
-92 -11 -86 -5 -86 -5 -104 -40 -12 -21 -15 -36 -8 -40 5 -4 7 -14 3 -24 -5
-14 -2 -16 18 -12 14 2 31 0 39 -5 10 -6 8 -9 -11 -10 -16 -1 -19 -3 -8 -6 9
-2 103 25 209 61 273 93 265 87 -66 -57 -77 -33 -200 -85 -273 -116 l-134 -56
2 -260 c1 -261 -11 -705 -18 -672 -4 20 -22 23 -23 5 0 -7 -4 -4 -9 7 -5 11
-9 218 -9 461 l-1 440 -247 13 c-137 6 -301 13 -367 14 -116 2 -119 1 -136
-23 -17 -23 -19 -66 -24 -520 -3 -272 -7 -713 -8 -980 l-2 -485 -7 535 c-12
1000 -11 1407 5 1445 16 36 97 88 104 66 4 -13 202 -16 202 -2 0 5 12 14 28
20 62 26 112 61 112 78 0 7 5 13 11 13 5 0 7 5 4 10 -3 6 -13 10 -21 10 -8 0
-13 -3 -11 -7 3 -5 -9 -9 -26 -10 -28 -2 -25 0 22 23 30 13 61 26 70 28 9 2
39 13 66 26 28 12 88 40 135 61 l85 39 150 0 c83 0 194 -3 248 -7z m3782 -32
c124 -56 125 -64 2 -21 -75 26 -102 30 -199 31 -62 1 -142 5 -178 9 -44 5 -2
7 130 6 179 -2 199 -4 245 -25z m-604 -77 c101 -36 216 -76 254 -89 39 -13 79
-27 90 -31 l20 -7 -20 16 c-20 16 -20 16 6 17 14 0 30 5 36 11 14 14 176 17
194 3 8 -6 39 -16 69 -23 30 -8 82 -27 115 -43 57 -29 68 -31 210 -35 158 -6
234 -21 110 -24 -38 0 -180 -6 -315 -12 l-245 -12 -5 -390 c-3 -214 -8 -382
-12 -372 -5 10 -8 31 -9 45 -1 23 -3 22 -14 -13 -12 -34 -13 13 -12 347 l2
388 -82 35 c-45 19 -84 35 -87 35 -3 0 -108 45 -233 101 -125 55 -237 104
-248 109 -57 25 12 3 176 -56z m-986 -49 c14 -13 25 -33 25 -44 0 -24 -37 -61
-60 -61 -25 0 -60 38 -60 65 0 22 41 65 62 65 5 0 20 -11 33 -25z m2270 -165
c19 -21 20 -37 20 -464 l1 -441 -6 437 -5 436 -25 27 c-18 19 -32 25 -52 23
-33 -5 -38 9 -5 14 27 5 46 -4 72 -32z m-5035 -289 c0 -33 -4 -62 -9 -65 -4
-3 -67 -3 -138 1 l-130 6 3 56 c2 31 3 57 4 59 0 1 61 2 135 2 l135 0 0 -59z
m4705 49 c8 -13 12 -97 5 -103 -3 -3 -60 -8 -127 -12 l-123 -7 0 66 0 66 119
0 c72 0 122 -4 126 -10z m-1069 -48 c101 -8 142 -27 184 -89 33 -48 36 -80 30
-358 -3 -137 -7 -199 -8 -137 -1 72 -6 111 -12 107 -5 -3 -11 -18 -12 -33 -1
-15 -4 59 -7 165 l-6 191 -30 38 c-17 20 -46 45 -64 55 -32 17 -99 18 -1485
13 -849 -4 -1464 -10 -1482 -15 -17 -5 -46 -25 -65 -45 l-34 -35 -6 -297 c-4
-163 -7 -528 -8 -810 -1 -391 -4 -511 -13 -510 -7 2 -15 -10 -18 -27 -8 -36
-24 1277 -18 1490 3 119 7 157 21 182 26 48 79 98 118 110 38 12 2753 17 2915
5z m-2071 -182 c-27 -5 -197 -9 -377 -9 -215 -1 -329 -5 -333 -11 -4 -6 -15
-8 -25 -5 -35 11 -36 3 -47 -420 -7 -276 -9 -311 -14 -210 -4 66 -7 233 -8
371 -1 239 0 251 19 272 21 22 21 22 428 21 236 -1 386 -5 357 -9z m-748 -72
c-3 -7 -5 -2 -5 12 0 14 2 19 5 13 2 -7 2 -19 0 -25z m-934 15 c-24 -2 -62 -2
-85 0 -24 2 -5 4 42 4 47 0 66 -2 43 -4z m1295 -296 l3 -78 -78 3 -78 3 -3 64
c-4 92 -4 92 80 89 l73 -3 3 -78z m240 1 l3 -78 -81 0 -80 0 0 73 c0 41 3 77
7 81 4 4 39 5 78 4 l70 -3 3 -77z m193 65 c1 -5 3 -17 5 -28 2 -11 7 -38 13
-60 5 -22 9 -41 7 -42 -2 -2 -33 -6 -70 -10 l-66 -6 0 77 0 76 55 0 c30 0 56
-3 56 -7z m285 -25 c-4 -27 -12 -64 -15 -75 -1 -2 -1 -6 0 -9 2 -15 -29 -24
-78 -24 l-53 0 0 70 0 70 76 0 76 0 -6 -32z m199 22 c7 -11 16 -54 19 -85 1
-11 5 -26 9 -32 6 -10 -8 -13 -62 -13 l-71 0 0 70 0 70 49 0 c28 0 53 -5 56
-10z m658 -7 c-7 -2 -13 -12 -13 -20 0 -9 3 -14 6 -11 7 7 48 -31 62 -58 15
-28 7 -34 -40 -34 l-38 0 0 65 c0 56 3 65 18 64 10 0 12 -3 5 -6z m-1573 -283
l0 -70 -80 0 -80 0 0 70 0 70 80 0 80 0 0 -70z m238 -2 l-3 -73 -75 0 -75 0
-3 73 -3 72 81 0 81 0 -3 -72z m197 20 c-11 -79 -18 -88 -70 -88 l-45 0 0 70
0 70 61 0 61 0 -7 -52z m230 20 c-8 -38 -23 -60 -36 -53 -4 3 -12 -3 -18 -12
-6 -10 -11 -12 -11 -5 0 6 -7 12 -15 12 -11 0 -15 12 -15 45 l0 45 51 0 51 0
-7 -32z m750 -5 c3 -21 13 -51 22 -66 8 -16 13 -30 11 -32 -1 -1 -36 -5 -75
-7 l-73 -4 0 73 0 73 55 0 54 0 6 -37z m524 -15 c-2 -49 -2 -51 -9 -18 l-7 35
-2 -30 c0 -17 -6 -36 -13 -43 -9 -9 -9 -12 1 -12 7 0 9 -4 6 -10 -3 -5 -33
-10 -66 -10 l-59 0 0 70 0 70 75 0 75 0 -1 -52z m-2059 -192 c0 -8 -4 -18 -10
-21 -5 -3 -10 0 -10 9 0 8 -6 17 -12 19 -7 3 -3 6 10 6 13 1 22 -5 22 -13z
m340 -18 c0 -24 -3 -29 -9 -19 -8 12 -11 9 -16 -12 -4 -14 -16 -29 -26 -32
-10 -4 -19 -11 -19 -16 0 -5 -9 -9 -21 -9 -11 0 -17 4 -14 10 3 5 -3 27 -15
49 -11 22 -20 45 -20 51 0 6 28 10 70 10 l70 0 0 -32z m138 -12 c2 -24 -2 -42
-10 -47 -11 -7 -10 -11 2 -19 12 -8 11 -10 -7 -10 -21 0 -23 4 -23 61 0 52 2
60 18 57 12 -2 18 -15 20 -42z m852 -31 l0 -75 -80 0 -80 0 0 68 c0 38 3 72 7
75 3 4 39 7 80 7 l73 0 0 -75z m240 6 l0 -68 -31 -7 c-17 -3 -51 -6 -75 -6
l-44 0 0 75 0 75 75 0 75 0 0 -69z m167 61 c10 -6 28 -89 24 -109 -1 -5 8 -11
21 -15 13 -3 -8 -6 -49 -7 l-73 -1 0 63 c0 35 3 67 7 70 9 9 55 9 70 -1z
m-699 -232 l52 0 0 -70 0 -70 -75 0 -75 0 0 76 c0 74 1 76 23 70 12 -3 46 -6
75 -6z m496 1 c25 -1 28 -3 14 -13 -15 -13 -35 -58 -40 -93 -3 -20 -26 -32
-65 -34 -22 -1 -23 3 -23 75 l0 76 43 -6 c23 -3 55 -5 71 -5z m176 -1 c4 0 3
-16 -3 -35 -7 -24 -13 -31 -19 -23 -5 8 -8 -1 -8 -24 0 -20 6 -39 13 -41 7 -3
5 -6 -5 -6 -16 -1 -18 9 -18 70 0 61 2 70 16 65 9 -3 19 -6 24 -6z m1927 -238
c27 -32 28 -52 8 -92 -51 -98 -189 -38 -154 67 21 65 102 78 146 25z m-4849
17 c66 -23 65 -106 -3 -135 -38 -16 -67 -8 -92 25 -26 34 -6 95 36 110 14 5
26 10 27 10 1 1 15 -4 32 -10z m5617 -339 c3 -5 -1 -10 -9 -10 -9 0 -16 5 -16
10 0 6 4 10 9 10 6 0 13 -4 16 -10z m-4966 -327 c-7 -10 -22 -28 -33 -40 -11
-13 -14 -23 -8 -23 7 0 12 -7 12 -15 0 -8 -8 -15 -17 -15 -15 0 -15 -2 -4 -9
9 -6 22 -6 34 1 25 13 34 3 16 -18 -12 -15 -11 -16 11 -9 40 12 52 25 39 41
-8 10 -8 14 0 14 6 0 11 -4 11 -10 0 -5 8 -6 18 -3 11 4 6 -4 -12 -23 -38 -39
-79 -101 -73 -111 3 -4 46 -8 97 -7 95 1 100 3 131 57 9 16 3 17 -73 19 l-83
2 100 5 c55 3 102 3 103 -2 2 -4 9 -4 15 -1 7 4 0 -6 -15 -23 -49 -51 -36 -63
73 -63 67 0 69 1 86 33 13 25 18 28 21 14 2 -9 7 -15 12 -12 4 3 7 -3 6 -13
-1 -14 10 -17 72 -20 40 -2 70 -7 68 -11 -6 -8 119 -21 214 -21 69 0 88 -10
65 -34 -9 -9 -21 -16 -26 -16 -5 0 -8 -5 -6 -12 3 -16 -56 -44 -142 -66 -39
-10 -68 -21 -65 -25 4 -4 -22 -8 -57 -9 l-64 -1 85 -8 c47 -4 189 -7 317 -8
l231 -1 22 35 c40 65 42 65 275 64 115 -1 221 -5 235 -9 14 -5 -77 -8 -210 -9
l-235 -1 -50 -59 -50 -60 -762 0 c-472 -1 -771 3 -787 9 -21 8 -26 16 -26 46
0 42 22 65 289 312 137 126 169 153 140 115z m4873 -39 c62 -15 115 -31 116
-35 2 -5 9 -6 15 -2 7 3 9 2 4 -2 -4 -5 0 -17 10 -27 15 -17 12 -18 -83 -18
-96 0 -298 14 -379 26 -34 5 -40 9 -40 29 0 23 4 24 88 31 48 4 90 11 93 15 9
15 59 10 176 -17z m-6047 -3 c55 -4 94 -8 87 -9 -9 -2 -10 -7 -3 -21 9 -17 5
-19 -37 -25 -82 -10 -357 -18 -346 -9 5 4 18 19 27 33 23 34 72 51 127 44 25
-3 90 -9 145 -13z m1205 -21 c0 -5 -2 -10 -4 -10 -3 0 -8 5 -11 10 -3 6 -1 10
4 10 6 0 11 -4 11 -10z m3660 -156 c139 -126 180 -173 180 -210 0 -28 -5 -36
-26 -44 -15 -6 -244 -9 -597 -8 -315 1 -507 5 -427 8 l145 6 -115 4 c-135 4
310 16 701 19 231 1 247 2 264 21 17 19 15 22 -71 112 -49 52 -100 107 -113
123 -13 17 -35 44 -50 60 l-26 30 35 -31 c19 -17 64 -58 100 -90z m-4447 56
c-59 -52 -273 -203 -498 -349 -45 -29 -50 -36 -50 -69 0 -32 -4 -39 -35 -54
-46 -24 -144 -24 -190 0 -99 49 4 139 143 125 52 -5 57 -3 138 48 47 30 153
101 237 159 171 118 242 161 255 153 5 -3 5 -9 0 -13z m305 -54 c-65 -56 -162
-130 -217 -163 -33 -20 -120 -101 -223 -208 -168 -176 -169 -176 -166 -218 2
-35 9 -45 35 -62 62 -39 29 -71 -36 -35 -57 32 -75 83 -51 145 5 14 85 107
177 206 128 137 185 190 238 223 39 24 110 68 158 99 54 34 94 54 104 50 13
-5 9 -12 -19 -37z m1102 -10 c0 -2 -7 -7 -16 -10 -8 -3 -12 -2 -9 4 6 10 25
14 25 6z m3435 -62 c74 -46 132 -94 202 -167 177 -181 263 -280 263 -300 0 -7
-5 -4 -11 6 -14 24 -28 21 -21 -5 4 -16 -8 -8 -39 27 -106 120 -330 335 -404
387 -79 56 -152 115 -127 103 6 -3 12 -1 12 4 0 21 23 11 125 -55z m477 -85
c225 -150 213 -144 288 -140 52 2 74 -3 110 -21 38 -20 45 -28 45 -53 0 -77
-184 -89 -249 -16 -15 16 -17 24 -8 33 7 7 12 15 12 19 0 4 -35 29 -77 55 -93
58 -144 91 -158 102 -5 4 -37 27 -70 49 -33 23 -73 53 -90 67 l-30 25 35 -8
c19 -5 106 -55 192 -112z m-2815 15 c-3 -3 -12 -4 -19 -1 -8 3 -5 6 6 6 11 1
17 -2 13 -5z m478 -102 c-3 -3 -11 0 -18 7 -9 10 -8 11 6 5 10 -3 15 -9 12
-12z m-86 -38 c2 -2 -206 -4 -462 -4 -295 0 -467 4 -467 10 0 9 919 3 929 -6z
m-2739 -4 c0 -5 -4 -10 -10 -10 -5 0 -10 5 -10 10 0 6 5 10 10 10 6 0 10 -4
10 -10z m4670 0 c0 -5 -4 -10 -10 -10 -5 0 -10 5 -10 10 0 6 5 10 10 10 6 0
10 -4 10 -10z m-4760 -70 c0 -5 -4 -10 -10 -10 -5 0 -10 5 -10 10 0 6 5 10 10
10 6 0 10 -4 10 -10z m4848 -1 c-2 -6 -8 -10 -13 -10 -5 0 -11 4 -13 10 -2 6
4 11 13 11 9 0 15 -5 13 -11z m-4738 -219 c11 -11 20 -27 20 -35 0 -12 18 -15
100 -15 82 0 100 -3 100 -15 0 -23 -345 -22 -378 1 -54 37 -10 84 80 84 45 0
63 -5 78 -20z m4755 -2 c28 -12 36 -58 10 -58 -9 0 -13 7 -9 18 2 9 -1 7 -7
-5 -9 -17 -20 -23 -43 -22 -29 1 -30 1 -6 8 34 9 40 48 8 55 -13 3 -32 7 -43
9 -11 3 -1 5 22 6 23 0 54 -4 68 -11z m330 -75 c-20 -15 -20 -15 3 -8 31 9 27
-2 -8 -20 -64 -33 -85 -4 -22 31 41 23 58 21 27 -3z m-5339 -89 c19 -9 34 -20
34 -25 0 -5 199 -9 458 -9 314 0 461 -3 469 -11 6 -6 99 -13 244 -17 416 -11
182 -21 -503 -21 l-657 -1 -36 -24 c-42 -29 -100 -40 -153 -31 -116 19 -139
98 -43 142 39 17 147 16 187 -3z m5265 6 c21 0 29 -5 29 -18 0 -10 5 -23 11
-29 7 -7 -7 -3 -30 9 -45 22 -92 20 -127 -7 -16 -11 -17 -17 -7 -34 10 -16 10
-20 -5 -24 -10 -3 -6 -5 11 -6 15 0 27 -6 27 -12 0 -18 -53 -1 -73 23 -18 21
-18 22 3 33 11 6 18 14 14 17 -3 4 -17 0 -30 -9 -34 -22 -29 -3 7 25 37 30 76
42 113 37 16 -3 41 -5 57 -5z m-311 -54 c0 -9 13 -16 33 -19 17 -2 -47 -4
-143 -4 -96 0 -166 2 -156 4 11 3 26 11 34 19 20 21 232 20 232 0z m325 -56
c-3 -5 1 -10 9 -10 8 0 18 5 21 10 3 6 12 10 18 10 7 0 3 -7 -8 -16 -11 -8
-30 -12 -42 -9 -13 3 -23 1 -23 -5 0 -5 -6 -10 -12 -10 -7 1 -2 10 11 20 25
22 36 26 26 10z m-2991 -143 c6 -137 6 -138 -19 -162 -13 -14 -35 -25 -48 -25
-20 0 -24 -5 -24 -27 0 -65 -143 -95 -232 -48 -59 30 -48 84 22 116 50 22 97
23 151 4 34 -12 43 -12 68 1 l28 15 0 108 c0 118 4 141 26 141 8 0 14 5 14 12
0 6 2 9 4 7 3 -2 7 -66 10 -142z m-408 -3 c-3 -12 -21 -29 -40 -38 -30 -14
-87 -16 -446 -16 l-413 0 -22 -24 c-52 -56 -197 -61 -257 -8 -39 33 -10 90 58
112 53 18 148 8 184 -18 29 -22 33 -22 442 -22 467 0 458 -1 458 70 0 50 10
77 21 58 7 -10 9 -8 11 7 1 11 3 -7 5 -40 2 -32 2 -69 -1 -81z m734 -101 c0
-220 1 -227 22 -250 17 -19 20 -28 12 -41 -13 -21 -89 -29 -110 -11 -20 17
-17 47 6 59 19 10 20 21 20 240 l0 230 25 0 25 0 0 -227z m-1580 198 c0 -14
-37 -23 -61 -16 -17 6 -19 9 -8 16 19 12 69 11 69 0z m3120 -5 c0 -2 -9 -6
-20 -9 -11 -3 -20 -1 -20 4 0 5 9 9 20 9 11 0 20 -2 20 -4z m-1200 -128 l0
-96 33 -11 c22 -8 43 -8 67 -1 97 28 201 -3 208 -62 2 -20 -4 -30 -30 -46 -86
-51 -228 -24 -228 45 0 17 -6 23 -21 23 -11 0 -34 8 -50 17 l-29 17 0 112 c0
99 2 113 18 116 27 6 32 -10 32 -114z m1456 26 c31 -39 31 -52 -2 -17 -23 26
-25 26 -19 6 7 -26 -2 -63 -16 -63 -5 0 -4 9 3 21 11 18 10 23 -11 40 -26 22
-100 26 -119 7 -17 -17 -15 -42 6 -60 22 -20 141 -23 148 -4 3 7 11 13 19 13
20 0 19 -2 -8 -20 -30 -19 -92 -33 -83 -18 4 6 3 11 -3 11 -5 0 -13 -4 -16
-10 -8 -13 -55 -13 -55 0 0 6 -6 10 -12 8 -23 -4 -58 13 -58 28 0 11 -25 14
-137 15 -106 1 -126 3 -88 9 28 5 75 9 105 10 43 2 50 4 30 10 -19 6 -12 8 32
9 31 1 60 6 63 12 14 21 51 29 123 25 67 -3 76 -6 98 -32z m-408 -11 c-32 -2
-84 -2 -115 0 -32 2 -6 3 57 3 63 0 89 -1 58 -3z"/>
<path d="M2770 7240 c-8 -5 -10 -10 -5 -10 6 0 17 5 25 10 8 5 11 10 5 10 -5
0 -17 -5 -25 -10z"/>
<path d="M6178 6743 c12 -2 32 -2 45 0 12 2 2 4 -23 4 -25 0 -35 -2 -22 -4z"/>
<path d="M1922 4170 c-53 -23 -30 -70 34 -70 40 0 84 19 84 35 0 32 -74 53
-118 35z"/>
<path d="M8220 4162 c-25 -20 -25 -20 -5 -41 16 -18 28 -21 73 -19 39 2 58 8
66 20 27 44 -87 78 -134 40z"/>
<path d="M2702 3903 c4 -20 54 -29 77 -14 23 15 2 31 -40 31 -33 0 -40 -3 -37
-17z"/>
<path d="M2398 3726 c-24 -18 -23 -32 4 -50 31 -22 91 -20 119 3 23 19 24 19
5 40 -22 25 -100 29 -128 7z"/>
<path d="M4578 3334 c-16 -8 -28 -18 -28 -22 1 -21 22 -35 62 -39 75 -9 114
28 66 61 -28 20 -65 20 -100 0z"/>
<path d="M3344 3501 c-32 -14 -38 -30 -18 -52 25 -27 104 -27 129 1 17 19 17
22 3 36 -19 19 -85 27 -114 15z"/>
<path d="M5639 3331 c-23 -19 -24 -19 -5 -40 32 -35 146 -25 146 14 0 42 -99
60 -141 26z"/>
<path d="M5800 3309 c0 -5 5 -7 10 -4 6 3 10 8 10 11 0 2 -4 4 -10 4 -5 0 -10
-5 -10 -11z"/>
</g>
</svg>
